#!OML:ASF X:\für Bonn\!DataBase\2005_08_12_Daniel\c3d\Daniel.ASF
:FULLY-SPECIFIED
:DEGREES
129
root -3.27733 11.1648 -1.0729 400.506 -88.644 -423.14
lowerback 44.8327 -3.78163 5.49907
upperback 4.62245 -3.35021 -2.00804
thorax -16.2522 -2.13523 -3.30136
lowerneck 7.39235 2.34434 -2.72254
upperneck -3.93419 2.80177 -0.848252
head -2.55799 1.46246 0.0732101
rclavicle 9.44227e-015 3.97569e-015
rhumerus 80.6009 -19.8598 -181.678
rradius 8.25738
rwrist 147.163
rhand -22.623 12.4423
rfingers 7.12502
rthumb 3.80713 -17.5034
lclavicle 9.44227e-015 3.97569e-015
lhumerus 65.6507 4.32496 100.703
lradius 9.0038
lwrist -76.285
lhand -18.377 2.07675
lfingers 7.12502
lthumb 7.90645 31.9089
rfemur -35.8021 -42.7511 -15.3323
rtibia 116.496
rfoot 366.008 43.375
rtoes -1.17424
lfemur -222.227 146.208 -170.587
ltibia 115.809
lfoot -5.9529 -49.0345
ltoes 14.2948
130
root -3.29044 11.347 -1.07143 401.065 -88.6499 -423.481
lowerback 44.3779 -3.74925 5.47018
upperback 4.57536 -3.32296 -1.96295
thorax -16.1654 -2.11569 -3.26397
lowerneck 7.31876 2.38396 -2.77109
upperneck -3.88781 2.85352 -0.83798
head -2.53023 1.48791 0.0837558
rclavicle -2.65378e-014 -4.57205e-015
rhumerus 80.4544 -20.0747 -181.409
rradius 8.24233
rwrist 147.07
rhand -22.5986 12.4937
rfingers 7.12502
rthumb 3.83073 -17.4516
lclavicle -2.65378e-014 -4.57205e-015
lhumerus 65.5391 4.48162 101.068
lradius 8.91627
lwrist -76.5104
lhand -18.1633 2.24753
lfingers 7.12502
lthumb 8.11272 32.0718
rfemur -35.3992 -41.2485 -13.8407
rtibia 114.722
rfoot 365.485 42.4093
rtoes -1.03969
lfemur -221.401 147.476 -171.501
ltibia 114.133
lfoot -6.83181 -48.1969
ltoes 14.1584
131
root -3.30426 11.5299 -1.07027 401.372 -88.6662 -423.588
lowerback 43.9401 -3.72215 5.45919
upperback 4.5263 -3.29983 -1.95547
thorax -16.0883 -2.09979 -3.27544
lowerneck 7.23682 2.41045 -2.73695
upperneck -3.81069 2.89601 -0.840541
head -2.48879 1.50756 0.0768014
rclavicle -8.99501e-015 1.27222e-014
rhumerus 80.3431 -20.3238 -181.189
rradius 8.25341
rwrist 146.973
rhand -22.5995 12.5829
rfingers 7.12502
rthumb 3.82989 -17.3624
lclavicle -8.99501e-015 1.27222e-014
lhumerus 65.3368 4.64271 101.371
lradius 8.89543
lwrist -76.7551
lhand -17.9646 2.41305
lfingers 7.12502
lthumb 8.30446 32.2298
rfemur -34.8741 -39.8108 -12.5018
rtibia 112.918
rfoot 365.032 41.4989
rtoes -0.705561
lfemur -220.508 148.698 -172.382
ltibia 112.418
lfoot -7.75718 -47.3628
ltoes 14.0359
132
root -3.31866 11.7133 -1.06934 401.432 -88.6671 -423.442
lowerback 43.4873 -3.69284 5.44943
upperback 4.47467 -3.27159 -1.9376
thorax -16.0062 -2.08137 -3.2789
lowerneck 7.15114 2.4306 -2.72138
upperneck -3.73128 2.92949 -0.823245
head -2.44658 1.52239 0.0798841
rclavicle -1.98785e-015 -4.77083e-015
rhumerus 80.2272 -20.6051 -180.953
rradius 8.28189
rwrist 146.874
rhand -22.5874 12.6695
rfingers 7.12502
rthumb 3.84153 -17.2756
lclavicle -1.98785e-015 -4.77083e-015
lhumerus 65.1245 4.77606 101.697
lradius 8.85819
lwrist -77.0058
lhand -17.7353 2.58728
lfingers 7.12502
lthumb 8.52578 32.3952
rfemur -34.2547 -38.4766 -11.2689
rtibia 111.091
rfoot 364.693 40.5596
rtoes -0.200281
lfemur -219.582 149.887 -173.218
ltibia 110.66
lfoot -8.5609 -46.5518
ltoes 13.9365
133
root -3.33346 11.897 -1.06872 402.007 -88.6692 -423.805
lowerback 43.0272 -3.65928 5.42377
upperback 4.42183 -3.24307 -1.90392
thorax -15.9191 -2.06163 -3.25674
lowerneck 7.06535 2.46372 -2.73541
upperneck -3.6645 2.97676 -0.812877
head -2.40922 1.54486 0.0851614
rclavicle 1.04362e-015 2.52457e-014
rhumerus 80.0921 -20.8848 -180.697
rradius 8.29644
rwrist 146.805
rhand -22.6097 12.7485
rfingers 7.12502
rthumb 3.82003 -17.197
lclavicle 1.04362e-015 2.52457e-014
lhumerus 64.9082 4.94618 102.029
lradius 8.8271
lwrist -77.226
lhand -17.5104 2.79458
lfingers 7.12502
lthumb 8.74278 32.5935
rfemur -33.5699 -37.2126 -10.0991
rtibia 109.234
rfoot 364.293 39.636
rtoes 0.288171
lfemur -218.609 150.999 -173.989
ltibia 108.867
lfoot -9.30289 -45.7851
ltoes 13.8386
134
root -3.3483 12.0798 -1.06792 401.368 -88.6609 -422.932
lowerback 42.5411 -3.6389 5.40839
upperback 4.35878 -3.22902 -1.88919
thorax -15.8372 -2.04853 -3.25471
lowerneck 6.99038 2.50166 -2.73131
upperneck -3.57415 3.03358 -0.776614
head -2.3663 1.57083 0.0952484
rclavicle 3.91606e-014 -6.95746e-015
rhumerus 79.9617 -21.1375 -180.477
rradius 8.33496
rwrist 146.706
rhand -22.5017 12.8033
rfingers 7.12502
rthumb 3.92428 -17.1403
lclavicle 3.91606e-014 -6.95746e-015
lhumerus 64.6767 5.11426 102.331
lradius 8.79401
lwrist -77.5012
lhand -17.2803 2.93869
lfingers 7.12502
lthumb 8.96484 32.7282
rfemur -32.8495 -36.076 -9.02586
rtibia 107.374
rfoot 363.814 38.7628
rtoes 0.732571
lfemur -217.674 152.098 -174.798
ltibia 107.05
lfoot -10.1844 -44.9598
ltoes 13.6427
135
root -3.36396 12.26 -1.06713 401.676 -88.6572 -423.005
lowerback 42.0385 -3.60902 5.38606
upperback 4.30741 -3.20652 -1.86347
thorax -15.731 -2.03124 -3.24156
lowerneck 6.89571 2.53464 -2.71396
upperneck -3.49532 3.08408 -0.766381
head -2.32288 1.59438 0.0952754
rclavicle -7.7526e-015 1.61016e-014
rhumerus 79.8346 -21.3558 -180.249
rradius 8.33947
rwrist 146.608
rhand -22.4079 12.8259
rfingers 7.12502
rthumb 4.01489 -17.116
lclavicle -7.7526e-015 1.61016e-014
lhumerus 64.4837 5.29252 102.64
lradius 8.74528
lwrist -77.7792
lhand -17.0232 3.14083
lfingers 7.12502
lthumb 9.21295 32.9196
rfemur -32.1121 -35.0248 -8.00074
rtibia 105.519
rfoot 363.127 37.9193
rtoes 1.02269
lfemur -216.709 153.099 -175.542
ltibia 105.225
lfoot -11.0914 -44.1618
ltoes 13.5072
136
root -3.37936 12.4398 -1.06639 401.656 -88.6368 -422.722
lowerback 41.5227 -3.59793 5.386
upperback 4.24091 -3.19898 -1.85336
thorax -15.6395 -2.02166 -3.25046
lowerneck 6.82193 2.57429 -2.67399
upperneck -3.43913 3.14507 -0.747876
head -2.29074 1.62297 0.0932163
rclavicle 4.96962e-015 -1.59028e-015
rhumerus 79.6961 -21.5734 -180.052
rradius 8.38753
rwrist 146.539
rhand -22.342 12.8815
rfingers 7.12502
rthumb 4.0785 -17.0592
lclavicle 4.96962e-015 -1.59028e-015
lhumerus 64.2958 5.47919 102.913
lradius 8.67802
lwrist -78.0475
lhand -16.7888 3.27918
lfingers 7.12502
lthumb 9.43917 33.0478
rfemur -31.3562 -34.0551 -7.00543
rtibia 103.653
rfoot 362.386 37.1036
rtoes 1.31771
lfemur -215.77 154.069 -176.279
ltibia 103.38
lfoot -12.0111 -43.3312
ltoes 13.2877
137
root -3.39565 12.6215 -1.06613 401.964 -88.6213 -422.76
lowerback 41.0016 -3.57587 5.36746
upperback 4.16536 -3.1829 -1.82803
thorax -15.5516 -2.0071 -3.23712
lowerneck 6.72577 2.6104 -2.63142
upperneck -3.33289 3.20098 -0.759073
head -2.23721 1.6492 0.0823135
rclavicle -2.76311e-014 -9.34288e-015
rhumerus 79.5577 -21.8012 -179.835
rradius 8.40811
rwrist 146.439
rhand -22.2306 12.8843
rfingers 7.12502
rthumb 4.18613 -17.0543
lclavicle -2.76311e-014 -9.34288e-015
lhumerus 64.1103 5.6685 103.208
lradius 8.63599
lwrist -78.3834
lhand -16.445 3.44744
lfingers 7.12502
lthumb 9.77088 33.2008
rfemur -30.5771 -33.1243 -6.03632
rtibia 101.754
rfoot 361.585 36.287
rtoes 1.52251
lfemur -214.802 154.989 -176.991
ltibia 101.499
lfoot -12.9494 -42.4811
ltoes 13.0791
138
root -3.4119 12.7993 -1.06606 402.469 -88.5956 -422.981
lowerback 40.4717 -3.56569 5.3649
upperback 4.08962 -3.17727 -1.81442
thorax -15.4604 -1.99815 -3.24044
lowerneck 6.61565 2.66297 -2.58769
upperneck -3.23855 3.28169 -0.726433
head -2.18625 1.68677 0.0842776
rclavicle 4.47266e-016 -2.00773e-014
rhumerus 79.4159 -22.0234 -179.644
rradius 8.44536
rwrist 146.401
rhand -22.1514 12.8977
rfingers 7.12502
rthumb 4.26261 -17.0394
lclavicle 4.47266e-016 -2.00773e-014
lhumerus 63.9626 5.85307 103.478
lradius 8.54962
lwrist -78.7146
lhand -16.1786 3.61165
lfingers 7.12502
lthumb 10.0279 33.3527
rfemur -29.7954 -32.2677 -5.09775
rtibia 99.8543
rfoot 360.761 35.4783
rtoes 1.73953
lfemur -213.859 155.876 -177.677
ltibia 99.6071
lfoot -13.8454 -41.5956
ltoes 12.764
